<?xml version="1.0" encoding="utf-8"?>
<svg version="1.1" xmlns:xlink="http://www.w3.org/1999/xlink" width="56px" height="56px" xmlns="http://www.w3.org/2000/svg">
  <g transform="matrix(1 0 0 1 -169 -40 )">
    <path d="M 31.7552083333333 38.2447916666667  C 31.9739583333333 38.4635416666667  32.0833333333333 38.7430555555555  32.0833333333333 39.0833333333333  L 32.0833333333333 44.9166666666667  C 32.0833333333333 45.2569444444445  31.9739583333333 45.5364583333333  31.7552083333333 45.7552083333333  C 31.5364583333333 45.9739583333333  31.2569444444445 46.0833333333333  30.9166666666667 46.0833333333333  L 25.0833333333333 46.0833333333333  C 24.7430555555555 46.0833333333333  24.4635416666667 45.9739583333333  24.2447916666667 45.7552083333333  C 24.0260416666667 45.5364583333333  23.9166666666667 45.2569444444445  23.9166666666667 44.9166666666667  L 23.9166666666667 39.0833333333333  C 23.9166666666667 38.7430555555555  24.0260416666667 38.4635416666667  24.2447916666667 38.2447916666667  C 24.4635416666667 38.0260416666667  24.7430555555555 37.9166666666667  25.0833333333333 37.9166666666667  L 30.9166666666667 37.9166666666667  C 31.2569444444445 37.9166666666667  31.5364583333333 38.0260416666667  31.7552083333333 38.2447916666667  Z M 37.4244791666667 13.1796875  C 40.0859375 15.3550347222222  41.4166666666667 17.9618055555555  41.4166666666667 21  C 41.4166666666667 22.2152777777778  41.234375 23.3090277777778  40.8697916666667 24.28125  C 40.5052083333333 25.2534722222222  39.9522569444445 26.0920138888889  39.2109375 26.796875  C 38.4696180555555 27.5017361111111  37.8376736111111 28.0364583333333  37.3151041666667 28.4010416666667  C 36.7925347222222 28.765625  36.0694444444445 29.203125  35.1458333333333 29.7135416666667  C 34.3680555555555 30.1510416666667  33.8029513888889 30.4913194444445  33.4505208333333 30.734375  C 33.0980902777778 30.9774305555555  32.7821180555555 31.2690972222222  32.5026041666667 31.609375  C 32.2230902777778 31.9496527777778  32.0833333333333 32.3020833333333  32.0833333333333 32.6666666666667  L 32.0833333333333 33.8333333333333  C 32.0833333333333 34.1736111111111  31.9739583333333 34.453125  31.7552083333333 34.671875  C 31.5364583333333 34.890625  31.2569444444445 35  30.9166666666667 35  L 25.0833333333333 35  C 24.7430555555555 35  24.4635416666667 34.890625  24.2447916666667 34.671875  C 24.0260416666667 34.453125  23.9166666666667 34.1736111111111  23.9166666666667 33.8333333333333  L 23.9166666666667 31.3541666666667  C 23.9166666666667 30.5034722222222  24.0442708333333 29.7196180555555  24.2994791666667 29.0026041666667  C 24.5546875 28.2855902777778  24.8463541666667 27.7083333333333  25.1744791666667 27.2708333333333  C 25.5026041666667 26.8333333333333  25.9765625 26.4019097222222  26.5963541666667 25.9765625  C 27.2161458333333 25.5512152777778  27.7144097222222 25.2413194444445  28.0911458333333 25.046875  C 28.4678819444445 24.8524305555555  29.0086805555555 24.5972222222222  29.7135416666667 24.28125  C 31.0017361111111 23.6736111111111  31.9131944444445 23.1510416666667  32.4479166666667 22.7135416666667  C 32.9826388888889 22.2760416666667  33.25 21.6805555555555  33.25 20.9270833333333  C 33.25 19.90625  32.7213541666667 19.0373263888889  31.6640625 18.3203125  C 30.6067708333333 17.6032986111111  29.4461805555555 17.2447916666667  28.1822916666667 17.2447916666667  C 26.8211805555555 17.2447916666667  25.6666666666667 17.5729166666667  24.71875 18.2291666666667  C 24.0138888888889 18.7152777777778  23.0416666666667 19.7239583333333  21.8020833333333 21.2552083333333  C 21.5833333333333 21.546875  21.2795138888889 21.6927083333333  20.890625 21.6927083333333  C 20.6232638888889 21.6927083333333  20.3923611111111 21.6197916666667  20.1979166666667 21.4739583333333  L 16.2604166666667 18.484375  C 16.0173611111111 18.3142361111111  15.8715277777778 18.0711805555555  15.8229166666667 17.7552083333333  C 15.7743055555555 17.4392361111111  15.8350694444445 17.1597222222222  16.0052083333333 16.9166666666667  C 18.9704861111111 12.25  23.2118055555555 9.91666666666669  28.7291666666667 9.91666666666669  C 31.8645833333333 9.91666666666669  34.7630208333333 11.0043402777778  37.4244791666667 13.1796875  Z M 37.0598958333333 6.52604166666669  C 34.1796875 5.28645833333331  31.1597222222222 4.66666666666669  28 4.66666666666669  C 24.8402777777778 4.66666666666669  21.8203125 5.28645833333331  18.9401041666667 6.52604166666669  C 16.0598958333333 7.765625  13.5807291666667 9.42447916666669  11.5026041666667 11.5026041666667  C 9.42447916666669 13.5807291666667  7.765625 16.0598958333333  6.52604166666669 18.9401041666667  C 5.28645833333331 21.8203125  4.66666666666669 24.8402777777778  4.66666666666669 28  C 4.66666666666669 31.1597222222222  5.28645833333331 34.1796875  6.52604166666669 37.0598958333333  C 7.765625 39.9401041666667  9.42447916666669 42.4192708333333  11.5026041666667 44.4973958333333  C 13.5807291666667 46.5755208333333  16.0598958333333 48.234375  18.9401041666667 49.4739583333333  C 21.8203125 50.7135416666667  24.8402777777778 51.3333333333333  28 51.3333333333333  C 31.1597222222222 51.3333333333333  34.1796875 50.7135416666667  37.0598958333333 49.4739583333333  C 39.9401041666667 48.234375  42.4192708333333 46.5755208333333  44.4973958333333 44.4973958333333  C 46.5755208333333 42.4192708333333  48.234375 39.9401041666667  49.4739583333333 37.0598958333333  C 50.7135416666667 34.1796875  51.3333333333333 31.1597222222222  51.3333333333333 28  C 51.3333333333333 24.8402777777778  50.7135416666667 21.8203125  49.4739583333333 18.9401041666667  C 48.234375 16.0598958333333  46.5755208333333 13.5807291666667  44.4973958333333 11.5026041666667  C 42.4192708333333 9.42447916666669  39.9401041666667 7.765625  37.0598958333333 6.52604166666669  Z M 52.2447916666667 13.9453125  C 54.7482638888889 18.2352430555555  56 22.9201388888889  56 28  C 56 33.0798611111111  54.7482638888889 37.7647569444445  52.2447916666667 42.0546875  C 49.7413194444445 46.3446180555555  46.3446180555555 49.7413194444445  42.0546875 52.2447916666667  C 37.7647569444445 54.7482638888889  33.0798611111111 56  28 56  C 22.9201388888889 56  18.2352430555555 54.7482638888889  13.9453125 52.2447916666667  C 9.65538194444446 49.7413194444445  6.25868055555554 46.3446180555555  3.75520833333331 42.0546875  C 1.25173611111109 37.7647569444445  0 33.0798611111111  0 28  C 0 22.9201388888889  1.25173611111109 18.2352430555555  3.75520833333331 13.9453125  C 6.25868055555554 9.65538194444446  9.65538194444446 6.25868055555554  13.9453125 3.75520833333331  C 18.2352430555555 1.25173611111109  22.9201388888889 0  28 0  C 33.0798611111111 0  37.7647569444445 1.25173611111109  42.0546875 3.75520833333331  C 46.3446180555555 6.25868055555554  49.7413194444445 9.65538194444446  52.2447916666667 13.9453125  Z " fill-rule="nonzero" fill="#006eff" stroke="none" transform="matrix(1 0 0 1 169 40 )" />
  </g>
</svg>