<?xml version="1.0" encoding="utf-8"?>
<svg version="1.1" xmlns:xlink="http://www.w3.org/1999/xlink" width="20px" height="20px" xmlns="http://www.w3.org/2000/svg">
  <g transform="matrix(1 0 0 1 -20 -15 )">
    <path d="M 20 10  C 20 15.523  15.523 20  10 20  C 4.477 20  0 15.523  0 10  C 0 4.477  4.477 0  10 0  C 15.523 0  20 4.477  20 10  Z M 10 18  C 14.4182779986463 18  18 14.4182779986463  18 10  C 18 5.58172200135365  14.4182779986463 2.00000000000001  10 2.00000000000001  C 5.58172200135365 2.00000000000001  2 5.58172200135365  2 10  C 2 14.4182779986463  5.58172200135365 18  10 18  Z M 16.074 6.929  L 9.003 14  L 4.76 9.75699999999999  L 6.174 8.343  L 9.003 11.172  L 14.659 5.515  L 16.074 6.929  Z " fill-rule="nonzero" fill="#2ed477" stroke="none" transform="matrix(1 0 0 1 20 15 )" />
  </g>
</svg>